<svg xmlns="http://www.w3.org/2000/svg" viewBox="0 0 1000 1000" xml:space="preserve"><switch><g><circle fill="#382B73" cx="500" cy="500" r="398"/><circle fill="#473080" cx="500" cy="500" r="344.3"/><path fill="#382B73" d="M713.8 406.9c-2.7-3.5-7-5.8-11.9-5.8H350.2l-11.7-57.8c-1.9-9.3-10.1-16-19.6-16h-58.5c-11 0-20 9-20 20 0 4.2 1.3 8.2 3.6 11.4.3.4.5.7.8 1.1.2.2.3.4.5.6.2.2.4.5.7.7l.7.7.7.7c.2.2.3.3.5.4.4.3.8.6 1.1.9.2.1.3.2.5.3.3.2.7.4 1 .6.1.1.3.2.4.2.5.2.9.5 1.4.7.2.1.3.1.5.2l1.5.6c.1 0 .2.1.3.1.5.1 1 .3 1.5.4.1 0 .2.1.3.1.6.1 1.1.2 1.7.3h.4c.6.1 1.2.1 1.8.1h42.2l60.5 299c1.4 6.9 6.3 12.4 12.6 14.8-3.1 6.1-4.8 13-4.8 20.3 0 24.8 20.1 44.9 44.9 44.9 24.8 0 44.9-20.1 44.9-44.9 0-6.8-1.5-13.2-4.2-19h85.5c-2.7 5.8-4.2 12.2-4.2 19 0 24.8 20.1 44.9 44.9 44.9 24.8 0 44.9-20.1 44.9-44.9 0-6.8-1.5-13.3-4.3-19.1h.1c.4 0 .8-.1 1.2-.2.2 0 .4-.1.7-.1l1.2-.3c.2-.1.4-.1.6-.2.5-.2 1-.3 1.5-.6.3-.1.5-.2.8-.4.2-.1.5-.2.7-.4.3-.1.6-.3.8-.5.2-.1.4-.2.6-.4 5.7-3.5 9.5-9.8 9.5-17 0-11-9-20-20-20h-222l-8.8-43.4H668c6.5 0 12.1-4.1 14.2-10.1.1-.4.3-.8.4-1.3.1-.2.1-.4.2-.6l.8-4.1 12.7-62.7 2.3-11.2 9.9-49 6.1-30.1 2.2-10.9c.7-4.4-.5-8.8-3-12z"/><g><path fill="#FEDE3A" d="M668 579H370.7l-12.3-61.1L330.7 381h371.2c9.5 0 16.6 8.7 14.7 18l-33.9 168c-1.4 7-7.6 12-14.7 12z"/><path fill="#FFC733" d="m441.5 579-40-198h20.4l40 198zM616.4 579l40-198H636l-40 198zM517.7 381h20v198h-20z"/><path fill="#FFC733" d="m694.4 509 4-20H352.5l4.1 20z"/><path fill="#EF5A9D" d="M701.9 381H330.7l11.9 59h365.7l8.3-41c1.9-9.3-5.2-18-14.7-18z"/><path fill="#E7AD27" d="m365.3 552.3 5.4 26.7H668c7.1 0 13.3-5 14.7-12l3-14.6H365.3z"/><path fill="#A72973" d="m338.1 417.7 4.5 22.3h365.7l4.5-22.3z"/><g><path fill="#FFF" d="M621 662.4H382.6c-9.5 0-17.7-6.7-19.6-16l-60.5-299.2h-42.2c-11 0-20-9-20-20s9-20 20-20h58.5c9.5 0 17.7 6.7 19.6 16l60.5 299.2H621c11 0 20 9 20 20s-9 20-20 20z"/></g><g><path fill="#D1D3D4" d="M632.4 658.9 621 642.4H382.6l-63.7-315.3h-58.5L244 338.5c3.6 5.2 9.6 8.6 16.4 8.6h42.2L363 646.4c1.9 9.3 10.1 16 19.6 16H621c4.2 0 8.2-1.3 11.4-3.5z"/></g><g><circle fill="#177BC0" cx="415.7" cy="681.4" r="44.9"/></g><g><circle fill="#1CAEE4" cx="415.7" cy="681.4" r="29.6"/></g><g><circle fill="#177BC0" cx="582.7" cy="681.4" r="44.9"/></g><g><circle fill="#1CAEE4" cx="582.7" cy="681.4" r="29.6"/></g></g></g></switch></svg>
